<?xml version="1.0" encoding="UTF-8"?>
<svg xmlns="http://www.w3.org/2000/svg" viewBox="0 0 200 200">
  <defs>
    <style>
      .cls-1 {
        fill: #c63;
        stroke: #c63;
      }

      .cls-1, .cls-2, .cls-3, .cls-4, .cls-5, .cls-6 {
        stroke-miterlimit: 10;
      }

      .cls-2 {
        fill: #6cc;
        stroke: #6cc;
      }

      .cls-3 {
        fill: #96c;
        stroke: #96c;
      }

      .cls-4 {
        fill: #669;
        stroke: #669;
      }

      .cls-5 {
        fill: #396;
        stroke: #319966;
      }

      .cls-6 {
        fill: none;
        stroke: #000;
        stroke-width: 5px;
      }
    </style>
  </defs>
  <g id="Layer_2">
    <path class="cls-6" d="M121.04,52.45c-8.35,0-15.88,3.48-21.24,9.07-6.55-5.3-14.88-8.47-23.96-8.47-21.07,0-38.14,17.08-38.14,38.14s17.08,38.14,38.14,38.14c14.63,0,27.33-8.24,33.73-20.33,3.53,1.49,7.4,2.32,11.47,2.32,16.26,0,29.44-13.18,29.44-29.44s-13.18-29.44-29.44-29.44Z"/>
    <polygon class="cls-2" points="108.02 141.93 112.01 141.93 111 145.96 107.07 145.96 108.02 141.93"/>
    <polygon class="cls-3" points="117.1 141.93 121.1 141.93 120.08 145.96 116.15 145.96 117.1 141.93"/>
    <polygon class="cls-1" points="127 142.16 131 142.16 129.98 146.19 126.05 146.19 127 142.16"/>
    <polygon class="cls-4" points="136.19 142.16 140.18 142.16 139.17 146.19 135.24 146.19 136.19 142.16"/>
    <polygon class="cls-5" points="145.71 142.16 149.71 142.16 148.7 146.19 144.76 146.19 145.71 142.16"/>
    <rect x="50.1" y="150.72" width="93.69" height="1.8"/>
    <path d="M51.97,148.05c-.86.48-1.78.73-2.74.73-.61,0-1.16-.1-1.64-.31s-.9-.5-1.24-.87-.6-.82-.78-1.34-.27-1.09-.27-1.71c0-.41.04-.8.13-1.18s.22-.73.39-1.07.38-.63.62-.9.53-.5.85-.7.67-.35,1.05-.45.79-.16,1.24-.16c.83,0,1.57.15,2.23.45v.86c-.72-.4-1.49-.6-2.32-.6-.51,0-.97.09-1.39.28s-.77.45-1.06.77-.52.72-.68,1.16-.24.93-.25,1.46c0,.52.06,1,.2,1.44s.34.82.62,1.14.61.57,1.01.75.87.27,1.39.27c.71,0,1.33-.15,1.85-.45v-2.56h-1.91v-.71h2.69v3.7Z"/>
    <path d="M60.54,148.63l-1.27-2.41c-.12-.24-.25-.44-.36-.6s-.24-.29-.36-.38-.26-.16-.4-.21-.3-.06-.48-.06h-.93v3.66h-.78v-8.4h2.42c.32,0,.62.05.92.14s.56.23.79.42.42.41.55.69.21.6.21.97c0,.3-.04.57-.13.82s-.22.47-.38.67-.37.36-.6.49-.5.24-.8.3v.02c.11.05.22.11.31.18s.18.16.27.27.17.23.26.36.18.29.27.47l1.41,2.6h-.91ZM56.74,140.94v3.32h1.39c.28,0,.54-.04.77-.12s.43-.2.6-.35.29-.34.39-.55.14-.46.14-.73c0-.49-.16-.87-.47-1.15s-.77-.42-1.36-.42h-1.46Z"/>
    <path d="M72.12,145.4c0,2.35-1.03,3.52-3.09,3.52s-2.95-1.13-2.95-3.39v-5.16h.78v5.09c0,.92.19,1.61.56,2.07s.95.69,1.72.69c1.47,0,2.2-.89,2.2-2.67v-5.17h.78v5.03Z"/>
    <path d="M77.8,145.58v3.27h-.78v-8.4h2.17c.44,0,.83.05,1.17.16s.63.27.86.47.41.46.53.76.18.64.18,1.03-.07.75-.21,1.08-.33.62-.59.86-.57.43-.93.56-.78.2-1.25.2h-1.16ZM77.8,141.16v3.7h1.11c.72,0,1.27-.17,1.65-.5s.56-.81.56-1.42c0-1.18-.69-1.78-2.07-1.78h-1.25Z"/>
    <path d="M90.46,148.47l-1.27-2.41c-.12-.24-.25-.44-.36-.6s-.24-.29-.36-.38-.26-.16-.4-.21-.3-.06-.48-.06h-.93v3.66h-.78v-8.4h2.42c.32,0,.62.05.92.14s.56.23.79.42.42.41.55.69.21.6.21.97c0,.3-.04.57-.13.82s-.22.47-.38.67-.37.36-.6.49-.5.24-.8.3v.02c.11.05.22.11.31.18s.18.16.27.27.17.23.26.36.18.29.27.47l1.41,2.6h-.91ZM86.67,140.78v3.32h1.39c.28,0,.54-.04.77-.12s.43-.2.6-.35.29-.34.39-.55.14-.46.14-.73c0-.49-.16-.87-.47-1.15s-.77-.42-1.36-.42h-1.46Z"/>
    <path d="M98.64,148.99c-.61,0-1.15-.11-1.63-.33-.48-.22-.9-.52-1.23-.91s-.6-.83-.78-1.35-.27-1.07-.27-1.67c0-.66.09-1.26.27-1.8s.45-1.01.79-1.4.77-.69,1.28-.91,1.08-.33,1.72-.33c.59,0,1.13.11,1.6.32s.88.51,1.21.88c.33.38.59.82.76,1.34s.27,1.08.27,1.68c0,.64-.09,1.23-.26,1.77s-.43,1.02-.77,1.42-.75.71-1.25.94-1.06.34-1.71.34ZM98.7,141.01c-.51,0-.96.1-1.35.29s-.72.46-.99.79c-.27.33-.47.72-.61,1.16s-.21.92-.21,1.42c0,.48.06.93.18,1.37s.32.82.57,1.15.58.6.97.8.85.3,1.37.3.98-.09,1.38-.27.73-.43.99-.76.47-.71.6-1.15.2-.93.2-1.46c0-.49-.06-.96-.18-1.4s-.3-.83-.56-1.16c-.25-.33-.57-.59-.96-.79s-.86-.29-1.41-.29Z"/>
  </g>
  <g id="Layer_3">
    <g>
      <rect x="76.59" y="84.99" width="34.99" height="4.8"/>
      <rect x="85.53" y="106.24" width="47.31" height="4.8" transform="translate(217.82 -.54) rotate(90)"/>
    </g>
  </g>
</svg>