<?xml version="1.0" encoding="UTF-8"?>
<svg version="1.1" viewBox="0 0 900 900" width="225" height="225" xmlns="http://www.w3.org/2000/svg">
<path transform="translate(121,242)" d="m0 0h17l10 3 10 6 6 5 24-8 12-2h27l16 4 16 8 10 8 9 9 9 14 6 16 2 7 1 8v15l-1 8 2 6 5-1 15-7 9-2h19l14 4 23 12 13 10 8 8 11 14 4 1 11-12 9-4 4-1h21l14 7 11 10 3-1 8-13 8-12 11-11 14-8 15-5 8-1h13l14 2 13 5 10 8 6 7 7 14 8 1h15l3-8 4-16 5-9 4-5 8-6 8-4 14-3h23l15 4 17 9 12 11 7 7 10 16 5 11 5 17 3 21v26l-4 76v15l2 3 13 5 10 9 5 10 2 9-2 13-4 10-6 9-9 8-11 5-8 2h-19l-13-3-14-7-8-7-10-13-8 1-10 3-5 1h-13l-14-4-12-6-5 1-7 3-21 3h-12l-19-3-16-5-13-7-10-9-1-3-6-1-8 7-8 6-7 3-11 2h-14l-8-2-12-6-10-9-5-4-4 2-12 12-10 5-9 2h-14l-14-4-12-8-5 1-8 7-9 6-9 3-5 1h-17l-12-4-7 1-10 6-11 5-16 3h-22l-18-4-21-9h-4l-7 14-9 10-9 6-12 4-7 1h-8l-14-3-8-4-9-8-7-14-3-14-3-33-7-124-5-78-2-35-7-8-4-6-2-7 1-9 4-11 6-9 9-8 11-5zm6 21-9 2-8 5-6 8v5l8 6 3 13 4 49 4 66 6 115 3 43 3 12 7 8 8 3h11l10-3 6-5 3-4v-8l-7-6-3-11-3-30-3-49-3-53-1-27v-19l30 4h14l24-4 13-5 11-6 10-9 8-13 4-16v-12l-3-14-8-16-9-10-10-7-11-5-8-2h-26l-15 4-13 7-10 9-7 10h-1l-1-15-4-10-5-6-7-3zm565 82-12 6-5 6v5l5 3 17 5 14 9 6 5 7 11 4 11 2 11-1 30-5 72-1 17v28l3 11 4 8 5 5 5 4 9 4 9 2h11l10-4 6-5 4-7 1-10-4-8-7-1-5 4-5 1-7-2-3-5-2-8 1-27 4-79v-28l-3-19-5-15-8-14-9-10-7-6-11-6-11-4zm-139 14-10 3-11 6-7 6-7 10-5 10-7 21-4 20-4 31-4 40-1 4-4-9-12-54-9-43-4-8-4-3-3-1h-8l-5 3-4 6-8 30-12 50-8 28v2h-2l-1-39-2-22-3-15-6-21-8-17-9-13-10-9-14-8-9-4-9-2h-11l-10 4-5 4-4 8v5l5 2 15 3 12 5 11 7 8 8 8 13 6 16 3 19 4 57 4 24 4 10 9 10 5 3h14l6-4 6-8 5-14 5-19 13-64 1-7h2l1 16 10 59 5 19 4 9 7 8 9 5h10l8-5 4-5 5-12 5-22 5-45 3-31 4-22 8-16 9-10 14-7 16-4 4-3 1-4-3-6-5-4-7-3-6-1zm55 38-15 3-14 7-6 7-2 4v10l5 8 5 4 5-2 12-7 15-5 12-1 15 2 12 5 6 5 6 10 2 10-1 10-1 6-28-5-17-2h-22l-14 3-10 5-10 8-7 11-4 12-1 6v10l2 12 7 14 7 8 10 7 18 6 5 1h20l13-4 8-6 8-8 4-6 2-1v10l3 9 7 6 9 3 9 1 9-3 7-7 1-4-7-9-1-4v-16l1-18 5-36 1-6v-24l-4-13-5-9-9-10-13-8-17-6-19-3zm-341 3-21 3-20 6-10 6-7 7-5 12 1 7 4 6 8 5 4-1 9-9 14-8 12-4 6-1h14l12 3 8 6 6 8 3 9 1 13-38 2-18 2-17 5-10 6-10 9-7 11-4 16v8l3 15 7 13 8 9 10 6 10 4 5 1 18 1 12-2 13-5 9-7 7-9 5-11v-2h2l1 11 7 9 5 3 4 1h12l11-4 5-6v-8l-6-5-5-15-3-20-4-58-3-12-7-13-9-10-15-8-14-4-10-1z" fill="#026D37"/>
<path transform="translate(195,299)" d="m0 0h15l11 4 8 7 6 12 1 4v7l-5 12-5 6-10 6-10 3h-18l-20-3-10-3-3-2v-10l4-16 4-8 7-8 11-7z" fill="#036D37"/>
<path transform="translate(304,492)" d="m0 0 4 1v11l-4 17-7 13-9 9-11 4-13 1-11-4-8-7-4-9-1-4v-8l5-10 10-9 5-2 7-1z" fill="#026D37"/>
<path transform="translate(617,490)" d="m0 0 22 2 22 4-1 10-5 13-9 13-8 7-10 4-12 1-10-3-9-6-5-7-3-11 2-10 4-7 9-7 4-2z" fill="#026D37"/>
<path transform="translate(468,624)" d="m0 0h6l5 3 4-3h6l4 3h4l1-3h7l4 3 1 4v17l-2 7-8-1-1-5v-17l-5 1-1 20-1 1h-8l-1-2v-20l-5 1-1 20-1 1h-7l-2-2v-27z" fill="#724814"/>
<path transform="translate(397,612)" d="m0 0h7l3 1 2 34v7l-1 1h-12l-4 1h-8l-4-4-3-10 1-9 4-6 2-1h8l4 1v-13zm-7 22-3 4v6l4 4h5l2-2v-7l-3-5z" fill="#734713"/>
<path transform="translate(201,640)" d="m0 0h5l1 8-10 4 3 9 4 18-1 4-10 1-2-5-4-22-9-1-4-3-1-4 6-4z" fill="#754712"/>
<path transform="translate(335,630)" d="m0 0h14l4 5 2 8 1 14-2 2h-6l-4-1-3 2h-9l-5-5v-7l5-5 10-3-1-2-14 1v-6l2-2zm4 16-2 2 1 4 4 1 2-1-1-5z" fill="#734713"/>
<path transform="translate(521,626)" d="m0 0h15l6 3 2 2v24l-1 1-24-1-3-5 1-9 6-3 9-2v-2l-13-1v-6zm8 17-3 2 1 3h7v-5z" fill="#764612"/>
<path transform="translate(683,645)" d="m0 0 13 2 7 3 1 1v11l-2 13-2 3-9-2-13-2-3-3-1-4 3-7 2-2 14-1-1-3-2-1-10-1-1-3zm2 18-1 5 6 1 2-1v-5z" fill="#754712"/>
<path transform="translate(621,635)" d="m0 0h10l7 4 3 4 1 8-3 9-4 5-9 1-9-2-5-6v-14l4-6zm3 7-3 5v7l5 5 4-2 2-4v-7l-3-4z" fill="#744713"/>
<path transform="translate(426,624)" d="m0 0 10 1 4 2 3 6v8l-2 1-12 1-3 2 2 2h9l4-1 1 4-3 4-3 1h-10l-7-3-4-6-1-10 2-7 6-4zm0 7-2 2 1 4h5l2-2v-4z" fill="#714814"/>
<path transform="translate(245,642)" d="m0 0h10l5 4 3 6v5l-3 2-13 3v2l5 1 11-2 1 5-5 3-5 1h-12l-5-5-3-8v-7l4-6 4-3zm2 6-2 2v5l1 1h5l2-4-2-4z" fill="#734713"/>
<path transform="translate(554,629)" d="m0 0h19l3 2-1 5-10 1-1 2 6 2 5 3v9l-5 5-10 1-9-2-1-6 1-3 5 1 4 2h3v-3l-8-3-3-3v-11z" fill="#724813"/>
<path transform="translate(717,653)" d="m0 0h9l8 3 2 3-1 5-5-1-7-3 5 6 4 4 1 2v7l-3 4h-13l-7-2-2-2 1-7 2-1 6 4 5 1-1-3-8-5-2-4 1-7z" fill="#754712"/>
<path transform="translate(656,631)" d="m0 0h7l2 2v9l7 3v5l-3 1-6-1-2 8v4l7 3v5l-1 1h-9l-6-3-2-3 1-16-4-4 1-4 5-1z" fill="#744713"/>
<path transform="translate(588,631)" d="m0 0 13 1 5 2 1 4-2 2h-10l-2 1-1 5 2 6 3 2 7 1 1 1v5l-1 1h-12l-7-3-4-6v-12l5-9z" fill="#734713"/>
<path transform="translate(317,632)" d="m0 0h5l-1 7-5 3-4 2-1 19-2 1h-7l-2-3-2-18v-8l9-1 5 2z" fill="#744713"/>
<path transform="translate(287,636)" d="m0 0 4 2v5l-9 6v17l-5 2-5-1-3-12-1-16h15z" fill="#724814"/>
<path transform="translate(219,648)" d="m0 0h5l2 3 4 19v6l-6 2-5-1-3-11-2-10v-6z" fill="#734713"/>
<path transform="translate(495,470)" d="m0 0 2 1v14l-2 21-1 5-4-4-6-24v-6h2l3 3h2l2-7h2z" fill="#026130"/>
<path transform="translate(409,466)" d="m0 0 2 3 2 8 6-1 2-1-1 9-7 25-1 2h-2l-1-10z" fill="#046232"/>
<path transform="translate(453,443)" d="m0 0h2l3 23v10l-1 2-3-1v-2l-6 4h-2l1-10z" fill="#046232"/>
<path transform="translate(653,544)" d="m0 0h2l1 15-5 2-1-1-7-1-1 4-4 3h-6l4-4 8-7 7-8z" fill="#026130"/>
<path transform="translate(272,593)" d="m0 0h14l-1 2-16 3h-22l-6-1v-2l6-1 19 1z" fill="#026231"/>
<path transform="translate(442,371)" d="m0 0h21l12 6-4 2-3-1v-2l-11-2-13 1-3-3z" fill="#056232"/>
<path transform="translate(386,573)" d="m0 0h8l4 3h9l6 4v1h-9l-14-4-4-2z" fill="#056333"/>
<path transform="translate(213,636)" d="m0 0h9l1 1v5l-9 2-3-3 1-4z" fill="#6F4914"/>
<path transform="translate(645,494)" d="m0 0 11 1 5 1v6l-6-2-9-2z" fill="#066333"/>
<path transform="translate(309,540)" d="m0 0h2l1 11-1 1h-5l-1-4z" fill="#026131"/>
<path transform="translate(798,602)" d="m0 0h2l-2 4-9 7-4-2 2-3 8-2v-2z" fill="#026231"/>
<path transform="translate(668,586)" d="m0 0 2 1 3-1 2 3v4h-8l-2-2z" fill="#076334"/>
<path transform="translate(760,616)" d="m0 0h12l3 2-3 1h-19l-1-2z" fill="#026131"/>
<path transform="translate(117,596)" d="m0 0 4 2 4 6 2 1 2 5-4-1-6-7z" fill="#026231"/>
<path transform="translate(586,465)" d="m0 0 3 1-3 3-10 4h-2v-2l7-5z" fill="#026231"/>
<path transform="translate(349,532)" d="m0 0 3 3 1 8-4-2-2-5v-3z" fill="#096535"/>
<path transform="translate(664,465)" d="m0 0h1v6l-1 2-5-1 2-6z" fill="#026131"/>
<path transform="translate(157,332)" d="m0 0h2v8l-1 4h-2v-8z" fill="#026131"/>
<path transform="translate(719,326)" d="m0 0 6 1 5 3v2l-9-3z" fill="#026131"/>
</svg>
