<?xml version="1.0" encoding="UTF-8"?>
<svg xmlns="http://www.w3.org/2000/svg" viewBox="0 0 363.13 124.52">
  <defs>
    <style>
      .cls-1 {
        stroke: #231f20;
        stroke-miterlimit: 10;
      }
    </style>
  </defs>
  <g id="Layer_2">
    <path class="cls-1" d="M66.59.5h44.72v22.36s-19.45-1.01-19.45,0v11.12h17.18v21.35h-16.8v11.62h19.07v23.65h-44.72V.5Z"/>
    <polygon class="cls-1" points="117.91 .5 117.91 24.95 133.45 24.95 133.45 90.6 158.55 90.6 158.55 25.14 173.33 25.14 173.33 1.01 117.91 .5"/>
    <polygon class="cls-1" points="178.98 .5 199.64 89.72 227.87 89.72 247.95 1.42 222.75 1.42 214.32 58.59 213.26 58.59 204.23 .5 178.98 .5"/>
    <path class="cls-1" d="M255.89.76h44.72v22.36s-19.45-1.01-19.45,0v11.12h17.18v21.35h-16.8v11.62h19.07v23.65h-44.72V.76Z"/>
    <polygon class="cls-1" points="307.21 .76 307.21 25.2 322.75 25.2 322.75 90.85 347.85 90.85 347.85 25.39 362.63 25.39 362.63 1.27 307.21 .76"/>
  </g>
  <g id="Layer_3">
    <path class="cls-1" d="M59.87,21.13c-.96-3.16-2.67-8.78-7.83-13.26C44.75,1.54,34.82,1.17,31.32,1.04c-1.2-.04-2.2-.03-2.91,0H.5v89.56h25.14v-30.32c2.89.62,10.7,1.9,19.2-1.89,1.84-.82,6.62-3.02,10.61-7.96,9.5-11.75,5.06-27.22,4.42-29.31ZM34.54,37.14c-3.2,3.68-8.12,3.18-8.59,3.13l-.41-.06v-19.96c.72-.13,4.13-.66,7.2,1.52,3.28,2.33,3.73,6.03,3.88,7.26.15,1.2.61,5.02-2.08,8.12Z"/>
  </g>
</svg>