<?xml version="1.0" encoding="UTF-8"?>
<svg xmlns="http://www.w3.org/2000/svg" viewBox="0 0 1167.35 447.69">
  <defs>
    <style>
      .cls-1 {
        fill: #6f6f70;
        font-size: 130px;
        letter-spacing: -.07em;
      }

      .cls-1, .cls-2 {
        font-family: AdelleSansDevanagari-Regular, 'Adelle Sans Devanagari';
      }

      .cls-3 {
        fill: none;
      }

      .cls-3, .cls-4, .cls-5, .cls-6 {
        stroke-width: 0px;
      }

      .cls-7 {
        letter-spacing: -.07em;
      }

      .cls-4 {
        fill: #cbcbca;
      }

      .cls-5, .cls-2 {
        fill: #ed2024;
      }

      .cls-8 {
        letter-spacing: -.06em;
      }

      .cls-2 {
        font-size: 143px;
      }

      .cls-9 {
        letter-spacing: -.05em;
      }

      .cls-10 {
        letter-spacing: -.09em;
      }

      .cls-6 {
        fill: #fff;
      }
    </style>
  </defs>
  <g id="Layer_3" data-name="Layer 3">
    <rect class="cls-4" y="146.44" width="425.62" height="301.25"/>
    <rect class="cls-5" x="15.25" y="162.58" width="394.82" height="270.14"/>
  </g>
  <g id="Layer_2" data-name="Layer 2">
    <text class="cls-2" transform="translate(239.41 123.27)"><tspan class="cls-9" x="0" y="0">REPU</tspan><tspan class="cls-8" x="333.47" y="0">E</tspan><tspan class="cls-7" x="407.26" y="0">S</tspan><tspan class="cls-10" x="480.76" y="0">T</tspan><tspan class="cls-9" x="547.12" y="0">O</tspan></text>
    <text class="cls-1" transform="translate(451.96 267.46)"><tspan x="0" y="0">CENTER</tspan></text>
    <g>
      <path class="cls-3" d="M133.18,227.12h-24.74v53.32h26.9c23.54,0,33.14-8.42,33.14-29.06,0-17.69-9.57-24.26-35.3-24.26Z"/>
      <path class="cls-6" d="M140.62,208.4h-54.02v162.76h10.84v-72.24h47.87l39.84,72.24h11.47l-41.39-75.57,6.16-2.13c19.84-6.85,29.9-21.41,29.9-43.28,0-19.06-8.79-41.78-50.66-41.78ZM135.34,291.44h-37.9v-75.32h35.74c14.89,0,25.29,2.2,32.71,6.92,9.02,5.73,13.59,15.27,13.59,28.34,0,26.96-14.44,40.06-44.14,40.06Z"/>
      <path class="cls-6" d="M220.07,290.5c0-24.7,5.62-43.95,16.7-57.2,11-13.15,26.69-19.82,46.64-19.82,28.21,0,43.83,12.99,48.81,40.76l10-1.05c-4.9-39.43-34.26-47.92-58.58-47.92-47.2,0-75.38,32.58-75.38,87.14s23.83,81.62,70.82,81.62c15.89,0,52.62-4.17,61.48-41.57l-9.47-1.94c-7.12,24.22-23.31,35.54-50.58,35.54-40.12,0-60.46-25.43-60.46-75.58Z"/>
    </g>
  </g>
</svg>