<?xml version="1.0" encoding="UTF-8"?>
<svg id="Layer_1" data-name="Layer 1" xmlns="http://www.w3.org/2000/svg" viewBox="0 0 366.36 269.8">
  <defs>
    <style>
      .cls-1, .cls-2 {
        fill: #1b3793;
      }

      .cls-3, .cls-2 {
        isolation: isolate;
      }

      .cls-4 {
        fill: #9c3;
      }

      .cls-2 {
        font-family: MyanmarText, 'Myanmar Text';
        font-size: 45.67px;
      }
    </style>
  </defs>
  <g id="Layer_1-2" data-name="Layer 1">
    <g>
      <g id="Layer_2" data-name="Layer 2">
        <path class="cls-4" d="M21.6,54.71c.18,45.67.44,91.44.62,137.11.27,1.5,3.54,19.74,19.21,26.11,2.48.97,16.38,6.2,25.23-2.21,6.73-6.37,9.47-19.65,2.21-26.11-5.84-5.13-16.82-4.78-24.34,2.74l-.27-137.64h28.94v-20.36h-27.53V.37h-24.16v34.26H0v20.09h21.6Z"/>
      </g>
      <path class="cls-4" d="M141.98,130.48c-1.77,0-7.61.62-10.98,5.49-.18.27-2.92,4.34-2.04,9.29,1.06,5.93,6.55,10.8,13.9,12.13-1.59,2.48-5.31,7.7-12.13,10.44-4.51,1.77-8.67,1.77-10.98,1.77-4.78,0-8.32-1.15-9.65-1.59-8.67-2.92-13.63-8.94-15.4-11.15-1.77-2.12-4.07-5.66-5.84-10.53-.89-2.66-1.77-5.84-2.3-9.47-.89-5.49-.8-10.27-.53-14.07h73.56c.27-4.51.27-10.98-1.06-18.5-1.42-7.7-2.83-15.76-8.94-23.81-1.95-2.66-8.32-10.71-19.12-13.99-5.22-1.59-10.18-1.68-14.34-1.77-2.74,0-6.82-.09-11.95.89-2.12.44-7.61,1.5-13.72,4.51-13.19,6.46-20.18,16.99-21.86,19.83-6.02,9.65-7.7,19.3-8.05,24.7-.09,2.12-.18,6.9-.27,8.41-.09,6.28-.18,9.47,0,12.48.44,5.31,1.59,9.21,2.21,11.15,1.15,3.81,3.45,11.51,9.83,19.47,2.04,2.57,6.02,7.44,12.92,11.51,6.28,3.72,11.95,4.96,15.22,5.66,5.93,1.24,10.62,1.15,13.9,1.15,1.5,0,7.88-.18,13.63-1.5,2.21-.53,23.46-5.84,29.74-23.54,1.06-2.92,4.25-11.95-.53-19.92-2.66-4.43-8.23-9.12-15.05-8.85h0l-.18-.18ZM87.1,101.27c.44-2.3,1.06-4.78,1.86-7.44,3.19-9.83,9.83-20.09,23.46-19.3,25.4,1.59,22.93,35.85,22.93,35.85h-49.3s.09-3.89,1.06-9.12h0Z"/>
      <path class="cls-4" d="M164.37,74.63c1.5,0,3.54,0,5.93.35.89.09,3.1.44,5.31,1.24,2.21.71,7.7,2.57,11.15,7.88,2.57,3.89,2.66,7.44,2.66,7.44,1.86,23.9,2.12,49.39.09,76.12-.27,3.45-.53,6.82-.89,10.18-.71,4.16-1.42,8.32-2.12,12.48l-1.59,6.9c-.62,3.01-1.68,5.22-2.48,6.55-.53.97-1.77,2.92-4.07,4.6-1.95,1.42-2.92,1.42-3.19,1.42-1.86-.09-3.01-1.86-3.19-2.21-.35-.44-.97-1.24-1.68-2.21-.8-.97-.97-1.24-1.24-1.68-.44-.53-1.15-1.42-2.04-2.3-.53-.8-1.42-1.86-2.66-2.83-1.86-1.5-3.81-2.12-4.96-2.48-1.15-.27-2.57-.62-4.25-.62-2.3,0-4.16.27-5.49.62-.8.27-1.77.8-3.01,1.42-1.68.97-2.74,1.59-3.72,2.66-2.12,2.3-1.86,5.58-1.86,5.93.27,2.92,2.04,4.78,3.1,5.84,1.33,1.33,2.66,1.95,4.87,3.1,1.42.71,3.98,2.04,7.35,2.74,3.98.89,6.9.53,11.33,0,6.2-.71,10.71-2.12,11.68-2.48,1.86-.62,5.58-1.95,9.91-4.6,2.57-1.5,6.2-3.72,9.91-7.52,2.3-2.39,5.66-6.46,8.05-12.21,2.21-5.22,2.66-9.56,3.19-14.6.53-5.31.44-9.29.44-10.27-.27-9.29-.18-46.82,0-100.02h-46.65v8.59h.09Z"/>
      <circle class="cls-1" cx="188.62" cy="40.37" r="21.24"/>
      <g class="cls-3">
        <g class="cls-3">
          <text class="cls-2" transform="translate(211.02 216.52) skewX(-7.1)"><tspan x="0" y="0">market</tspan></text>
        </g>
      </g>
      <path class="cls-4" d="M339.63,150.22c0-.27-.27-.97-.71-1.77-.89-1.95-1.86-4.34-3.89-5.05l-2.57-.53h-3.89c-.71.09-1.77.35-2.92.97-1.06.53-1.77,1.24-2.3,1.77-1.5,1.77-2.04,3.36-2.21,4.34-.71,3.28.53,6.28,2.21,10.44.53,1.33,1.06,2.74,1.59,3.98.62,1.42.97,2.04,1.15,3.1.18.89.35,2.12-.18,3.28-.89,1.95-3.54,3.1-5.84,2.66s-3.54-2.39-4.43-3.89c-1.77-2.92-2.04-5.75-2.12-6.46-2.12-26.02.09-67.89.09-67.89,0-.71.09-2.12-.09-3.89-.71-5.93-3.81-10.18-5.93-13.1-1.77-2.3-4.34-5.84-9.03-8.85-5.13-3.28-9.83-3.98-15.31-4.78-4.07-.62-9.56-1.42-16.11,0-3.63.8-7.08,2.12-8.41,2.66-1.42.62-3.54,1.42-6.2,2.92-.89.53-3.1,1.77-5.84,3.89-1.95,1.5-4.25,3.28-6.46,6.11-1.86,2.21-4.78,5.93-5.84,11.51-.27,1.33-.71,3.89-.09,7.26.35,2.12,1.33,7.35,5.93,10.62,3.63,2.57,7.52,2.48,9.47,2.39,1.86,0,6.28-.27,9.29-3.36,1.77-1.77,2.39-3.89,2.74-5.58,1.95-7.97,1.59-17.08,1.15-22.04,0-.62,0-1.77.35-3.1.35-.89.8-1.59,1.15-2.12.71-.62,5.31-4.96,11.6-4.07,6.73.89,10.09,6.82,10.98,8.32,1.33,2.21,1.86,4.34,2.12,5.75.44,2.3.89,5.66,1.15,9.74s.35,6.11-.18,7.79c-1.68,5.58-8.85,8.14-12.04,9.03-4.96,1.86-10,3.63-14.96,5.49l-11.95,4.16c-1.95.53-4.69,1.33-7.7,2.83-2.83,1.42-7.17,3.54-11.06,7.97-3.54,3.98-5.31,8.23-6.2,11.24-.53,2.21-.97,4.96-1.15,7.97-.27,3.98,0,7.44.44,10.18.09,2.21.8,5.4,2.48,9.03,1.86,3.98,4.69,6.02,6.73,7.7,1.68,1.33,4.34,3.54,8.41,5.05,7.61,2.83,15.14,1.5,20.62.44.35,0,.53-.09.89-.18,4.78-.97,13.1-4.07,24.34-15.4.71-.71,1.24-1.33,1.5-1.68.35-.44.89-1.15,1.59-1.42.27-.09.53-.18.53-.18.35-.09.62-.18.8-.18.35,0,.89,0,1.42.27,2.12,1.06,1.5,4.6,3.19,9.03.44,1.15,1.06,2.57,2.12,4.16,0,0,6.11,4.34,9.12,4.96s13.99,0,15.4-.27,4.34-2.21,6.28-3.81c1.06-.89,3.01-2.48,4.87-5.13,1.77-2.57,2.74-5.13,3.28-7.08.27-1.42.53-3.28.71-5.49,0-1.15,0-2.3.09-4.51,0-4.6-.18-5.93-.53-7.35h0l.35.18ZM291.21,147.74c-.09,4.87-.44,6.64-1.33,8.41-1.33,2.57-3.28,4.16-4.16,4.96-1.95,1.59-3.72,2.48-4.78,2.92-1.06.44-3.19,1.33-7.17,1.86-4.6.62-8.05,1.15-12.04-.09-1.15-.35-5.4-1.77-8.41-5.4-4.25-5.05-4.69-12.92-1.59-20.09,1.95-1.86,4.96-4.34,8.85-7.08,3.36-2.3,5.93-3.72,8.14-4.96,15.22-8.41,20-13.1,22.13-11.42.53.44.53.97.35,8.76-.18,6.02-.18,9.03-.18,9.83,0,5.4.35,6.64.18,12.3h0Z"/>
    </g>
  </g>
</svg>