<?xml version="1.0" encoding="UTF-8"?>
<svg id="Layer_1" data-name="Layer 1" xmlns="http://www.w3.org/2000/svg" viewBox="0 0 185.83 136.85">
  <defs>
    <style>
      .cls-1, .cls-2 {
        fill: #1b3793;
      }

      .cls-3, .cls-2 {
        isolation: isolate;
      }

      .cls-4 {
        fill: #9c3;
      }

      .cls-2 {
        font-family: MyanmarText, 'Myanmar Text';
        font-size: 23.17px;
      }
    </style>
  </defs>
  <g id="Layer_1-2" data-name="Layer 1">
    <g>
      <g id="Layer_2" data-name="Layer 2">
        <path class="cls-4" d="M10.96,27.75c.09,23.17.22,46.38.31,69.55.13.76,1.8,10.01,9.74,13.24,1.26.49,8.31,3.14,12.8-1.12,3.41-3.23,4.8-9.97,1.12-13.24-2.96-2.6-8.53-2.42-12.35,1.39l-.13-69.82h14.68v-10.33h-13.96V.19h-12.26v17.38H0v10.19h10.96Z"/>
      </g>
      <path class="cls-4" d="M72.02,66.19c-.9,0-3.86.31-5.57,2.78-.09.13-1.48,2.2-1.03,4.71.54,3.01,3.32,5.48,7.05,6.15-.81,1.26-2.69,3.91-6.15,5.3-2.29.9-4.4.9-5.57.9-2.42,0-4.22-.58-4.89-.81-4.4-1.48-6.91-4.53-7.81-5.66-.9-1.08-2.07-2.87-2.96-5.34-.45-1.35-.9-2.96-1.17-4.8-.45-2.78-.4-5.21-.27-7.14h37.31c.13-2.29.13-5.57-.54-9.38-.72-3.91-1.44-7.99-4.53-12.08-.99-1.35-4.22-5.43-9.7-7.09-2.65-.81-5.16-.85-7.27-.9-1.39,0-3.46-.04-6.06.45-1.08.22-3.86.76-6.96,2.29-6.69,3.28-10.24,8.62-11.09,10.06-3.05,4.89-3.91,9.79-4.09,12.53-.04,1.08-.09,3.5-.13,4.27-.04,3.19-.09,4.8,0,6.33.22,2.69.81,4.67,1.12,5.66.58,1.93,1.75,5.84,4.98,9.88,1.03,1.3,3.05,3.77,6.56,5.84,3.19,1.89,6.06,2.51,7.72,2.87,3.01.63,5.39.58,7.05.58.76,0,4-.09,6.91-.76,1.12-.27,11.9-2.96,15.09-11.94.54-1.48,2.16-6.06-.27-10.1-1.35-2.24-4.18-4.62-7.63-4.49h0l-.09-.09ZM44.18,51.37c.22-1.17.54-2.42.94-3.77,1.62-4.98,4.98-10.19,11.9-9.79,12.89.81,11.63,18.18,11.63,18.18h-25.01s.04-1.98.54-4.62h0Z"/>
      <path class="cls-4" d="M83.38,37.85c.76,0,1.8,0,3.01.18.45.04,1.57.22,2.69.63,1.12.36,3.91,1.3,5.66,4,1.3,1.98,1.35,3.77,1.35,3.77.94,12.12,1.08,25.05.04,38.61-.13,1.75-.27,3.46-.45,5.16-.36,2.11-.72,4.22-1.08,6.33l-.81,3.5c-.31,1.53-.85,2.65-1.26,3.32-.27.49-.9,1.48-2.07,2.33-.99.72-1.48.72-1.62.72-.94-.04-1.53-.94-1.62-1.12-.18-.22-.49-.63-.85-1.12-.4-.49-.49-.63-.63-.85-.22-.27-.58-.72-1.03-1.17-.27-.4-.72-.94-1.35-1.44-.94-.76-1.93-1.08-2.51-1.26-.58-.13-1.3-.31-2.16-.31-1.17,0-2.11.13-2.78.31-.4.13-.9.4-1.53.72-.85.49-1.39.81-1.89,1.35-1.08,1.17-.94,2.83-.94,3.01.13,1.48,1.03,2.42,1.57,2.96.67.67,1.35.99,2.47,1.57.72.36,2.02,1.03,3.73,1.39,2.02.45,3.5.27,5.75,0,3.14-.36,5.43-1.08,5.93-1.26.94-.31,2.83-.99,5.03-2.33,1.3-.76,3.14-1.89,5.03-3.82,1.17-1.21,2.87-3.28,4.09-6.2,1.12-2.65,1.35-4.85,1.62-7.41.27-2.69.22-4.71.22-5.21-.13-4.71-.09-23.75,0-50.73h-23.66v4.36h.04Z"/>
      <circle class="cls-1" cx="95.68" cy="20.48" r="10.78"/>
      <g class="cls-3">
        <g class="cls-3">
          <text class="cls-2" transform="translate(107.04 109.83) skewX(-7.1)"><tspan x="0" y="0">market</tspan></text>
        </g>
      </g>
      <path class="cls-4" d="M172.27,76.2c0-.13-.13-.49-.36-.9-.45-.99-.94-2.2-1.98-2.56l-1.3-.27h-1.98c-.36.04-.9.18-1.48.49-.54.27-.9.63-1.17.9-.76.9-1.03,1.71-1.12,2.2-.36,1.66.27,3.19,1.12,5.3.27.67.54,1.39.81,2.02.31.72.49,1.03.58,1.57.09.45.18,1.08-.09,1.66-.45.99-1.8,1.57-2.96,1.35s-1.8-1.21-2.24-1.98c-.9-1.48-1.03-2.92-1.08-3.28-1.08-13.2.04-34.44.04-34.44,0-.36.04-1.08-.04-1.98-.36-3.01-1.93-5.16-3.01-6.64-.9-1.17-2.2-2.96-4.58-4.49-2.6-1.66-4.98-2.02-7.77-2.42-2.07-.31-4.85-.72-8.17,0-1.84.4-3.59,1.08-4.27,1.35-.72.31-1.8.72-3.14,1.48-.45.27-1.57.9-2.96,1.98-.99.76-2.16,1.66-3.28,3.1-.94,1.12-2.42,3.01-2.96,5.84-.13.67-.36,1.98-.04,3.68.18,1.08.67,3.73,3.01,5.39,1.84,1.3,3.82,1.26,4.8,1.21.94,0,3.19-.13,4.71-1.71.9-.9,1.21-1.98,1.39-2.83.99-4.04.81-8.67.58-11.18,0-.31,0-.9.18-1.57.18-.45.4-.81.58-1.08.36-.31,2.69-2.51,5.88-2.07,3.41.45,5.12,3.46,5.57,4.22.67,1.12.94,2.2,1.08,2.92.22,1.17.45,2.87.58,4.94s.18,3.1-.09,3.95c-.85,2.83-4.49,4.13-6.11,4.58-2.51.94-5.07,1.84-7.59,2.78l-6.06,2.11c-.99.27-2.38.67-3.91,1.44-1.44.72-3.64,1.8-5.61,4.04-1.8,2.02-2.69,4.18-3.14,5.7-.27,1.12-.49,2.51-.58,4.04-.13,2.02,0,3.77.22,5.16.04,1.12.4,2.74,1.26,4.58.94,2.02,2.38,3.05,3.41,3.91.85.67,2.2,1.8,4.27,2.56,3.86,1.44,7.68.76,10.46.22.18,0,.27-.04.45-.09,2.42-.49,6.64-2.07,12.35-7.81.36-.36.63-.67.76-.85.18-.22.45-.58.81-.72.13-.04.27-.09.27-.09.18-.04.31-.09.4-.09.18,0,.45,0,.72.13,1.08.54.76,2.33,1.62,4.58.22.58.54,1.3,1.08,2.11,0,0,3.1,2.2,4.62,2.51s7.09,0,7.81-.13,2.2-1.12,3.19-1.93c.54-.45,1.53-1.26,2.47-2.6.9-1.3,1.39-2.6,1.66-3.59.13-.72.27-1.66.36-2.78,0-.58,0-1.17.04-2.29,0-2.33-.09-3.01-.27-3.73h0l.18.09ZM147.71,74.94c-.04,2.47-.22,3.37-.67,4.27-.67,1.3-1.66,2.11-2.11,2.51-.99.81-1.89,1.26-2.42,1.48-.54.22-1.62.67-3.64.94-2.33.31-4.09.58-6.11-.04-.58-.18-2.74-.9-4.27-2.74-2.16-2.56-2.38-6.56-.81-10.19.99-.94,2.51-2.2,4.49-3.59,1.71-1.17,3.01-1.89,4.13-2.51,7.72-4.27,10.15-6.64,11.22-5.79.27.22.27.49.18,4.44-.09,3.05-.09,4.58-.09,4.98,0,2.74.18,3.37.09,6.24h0Z"/>
    </g>
  </g>
</svg>